<svg width="113" height="107" viewBox="0 0 113 107" fill="none" xmlns="http://www.w3.org/2000/svg">
<rect width="113" height="107" rx="10" fill="#F17148"/>
<path d="M60.7241 15.3594C41.7343 15.3594 26.4215 30.2563 25.4645 48.9912L15.7932 61.7672C14.5843 63.3326 15.7932 65.8575 17.9088 65.8575H25.4645V81.007C25.4645 86.6123 29.9475 91.1066 35.5387 91.1066H40.5757V106.256H75.8354V82.5724C87.7733 76.9166 95.9838 64.8476 95.9838 50.7081C95.9838 31.2158 80.2681 15.3594 60.7241 15.3594ZM81.1747 48.5367L71.302 51.1626L78.5555 58.4848C79.4013 59.3366 79.8762 60.4895 79.8762 61.6914C79.8762 62.8934 79.4013 64.0463 78.5555 64.8981C77.7059 65.7461 76.5558 66.2222 75.3569 66.2222C74.158 66.2222 73.0079 65.7461 72.1583 64.8981L64.8042 57.6263L62.2353 67.524C61.6308 69.9984 59.1123 71.4123 56.7448 70.7559C56.1658 70.6093 55.6219 70.3483 55.1449 69.9881C54.6679 69.6279 54.2675 69.1759 53.9672 68.6584C53.6669 68.141 53.4728 67.5686 53.3962 66.9749C53.3195 66.3812 53.362 65.7781 53.5211 65.2011L56.1907 55.2529L46.2677 57.9293C45.6921 58.091 45.09 58.1351 44.4971 58.0593C43.9041 57.9834 43.3324 57.7891 42.8157 57.4877C42.2991 57.1864 41.848 56.7841 41.4892 56.3048C41.1304 55.8256 40.8712 55.279 40.7269 54.6974C40.072 52.324 41.4824 49.7991 43.9506 49.1931L53.8233 46.6177L46.5699 39.245C45.8121 38.3773 45.4117 37.2533 45.4498 36.1006C45.4879 34.948 45.9616 33.8529 46.7751 33.0374C47.5885 32.222 48.6808 31.747 49.8305 31.7088C50.9803 31.6706 52.1015 32.072 52.967 32.8317L60.2708 40.1035L62.8901 30.2058C63.0313 29.6383 63.283 29.1043 63.6305 28.6344C63.9781 28.1646 64.4148 27.7682 64.9155 27.4679C65.4163 27.1677 65.9712 26.9695 66.5485 26.8847C67.1259 26.7999 67.7142 26.8303 68.2798 26.974C70.7983 27.6304 72.2087 30.1048 71.6043 32.5792L68.9346 42.4769L78.8073 39.8005C79.3928 39.6491 80.0023 39.6153 80.6009 39.7011C81.1994 39.7869 81.7751 39.9905 82.2948 40.3003C82.8145 40.6101 83.2679 41.0199 83.629 41.5061C83.99 41.9924 84.2515 42.5454 84.3985 43.1334C84.5418 43.7004 84.5721 44.2902 84.4875 44.869C84.403 45.4478 84.2053 46.0041 83.9058 46.5061C83.6062 47.0081 83.2108 47.4459 82.7422 47.7943C82.2735 48.1428 81.7409 48.3951 81.1747 48.5367Z" fill="white"/>
<rect x="38.0371" y="25.584" width="46.5846" height="48.857" fill="white"/>
<rect x="65.4487" y="24.7012" width="31.1713" height="25.9883" rx="12.9941" transform="rotate(41.5375 65.4487 24.7012)" fill="#2B7FFF"/>
<rect x="40.2231" y="40.9121" width="31.1713" height="10.2083" rx="5.10415" transform="rotate(-1.88832 40.2231 40.9121)" fill="#2B7FFF"/>
<rect x="50.7993" y="31.0938" width="14.0467" height="10.2083" rx="5.10415" transform="rotate(34.4903 50.7993 31.0938)" fill="#2B7FFF"/>
<path d="M68.9258 31.6973C68.0274 30.6596 66.8749 29.8729 65.5811 29.4143C64.2874 28.9558 62.8967 28.8411 61.5453 29.0815C60.1939 29.3218 58.928 29.9091 57.8718 30.7856C56.8155 31.6622 56.0049 32.798 55.5195 34.0819C54.4759 33.6149 53.3314 33.4188 52.1919 33.5118C51.0524 33.6048 49.9547 33.9838 49.0007 34.6138C48.0466 35.2439 47.267 36.1045 46.734 37.1159C46.201 38.1274 45.9319 39.257 45.9516 40.4001M68.9258 31.6973C70.7865 31.1091 72.7769 31.0674 74.6606 31.5773C76.5442 32.0872 78.2419 33.1272 79.5517 34.5737C80.8616 36.0202 81.7286 37.8124 82.0496 39.7373C82.3707 41.6621 82.1323 43.6387 81.3629 45.432M68.9258 31.6973C67.0456 32.2941 65.3785 33.4227 64.1259 34.9466C62.8732 36.4704 62.0887 38.3245 61.8671 40.2846M45.9516 40.4001C45.1765 40.2427 44.3769 40.2472 43.6045 40.4178C42.8322 40.5883 42.1041 40.9187 41.4672 41.3879C40.8304 41.857 40.2989 42.4544 39.9071 43.1415C39.5152 43.8286 39.2717 44.5901 39.1922 45.3771C39.1127 46.1641 39.199 46.959 39.4456 47.7106C39.6921 48.4622 40.0934 49.1537 40.6235 49.7407C41.1537 50.3277 41.801 50.7971 42.5236 51.1187C43.2463 51.4402 44.0284 51.6067 44.8193 51.6075H55.1232M45.9516 40.4001C45.9811 42.0963 46.631 43.6362 47.6818 44.8138M81.3629 45.432C80.5855 45.0349 79.7269 44.8229 78.8541 44.8126C77.9812 44.8023 77.1178 44.994 76.3313 45.3726C75.5448 45.7513 74.8565 46.3067 74.3202 46.9955C73.7839 47.6842 73.4142 48.4876 73.2398 49.343M81.3629 45.432C82.4957 46.0099 83.4009 46.9522 83.9328 48.1073C84.4647 49.2624 84.5922 50.5629 84.2948 51.7993C83.9974 53.0356 83.2924 54.1359 82.2935 54.9227C81.2945 55.7096 80.0597 56.1372 78.7881 56.1367C78.1545 56.1371 77.5304 56.291 76.9692 56.5851C76.408 56.8792 75.9263 57.3048 75.5654 57.8255C75.2045 58.3462 74.975 58.9466 74.8965 59.5753C74.8181 60.204 74.893 60.8424 75.1149 61.4358L76.5235 65.195M55.1232 51.6075C55.3842 52.8863 56.079 54.0356 57.0901 54.861C58.1011 55.6863 59.3663 56.137 60.6714 56.1367C61.2489 56.1367 61.5365 56.1367 61.8037 56.1684C62.459 56.2463 63.0894 56.4664 63.6507 56.8133C64.212 57.1603 64.6907 57.6257 65.0534 58.1771C65.2006 58.4013 65.3297 58.6594 65.5878 59.1735L68.5974 65.195M55.1232 51.6075C54.9089 50.557 54.9973 49.4672 55.3782 48.465C55.759 47.4627 56.4167 46.5892 57.2745 45.9461" stroke="#2B7FFF" stroke-width="6.25" stroke-linecap="round" stroke-linejoin="round"/>
<rect x="66.5996" y="55.0723" width="10.3904" height="12.7882" rx="2" fill="#2B7FFF"/>
<path fill-rule="evenodd" clip-rule="evenodd" d="M76.9552 47.0104L73.6109 50.3232L76.399 52.0182L65.1696 55.1194L70.4249 49.9136L68.1945 48.5575L72.4943 44.2982L76.9552 47.0104Z" fill="white"/>
<path fill-rule="evenodd" clip-rule="evenodd" d="M65.5133 30.7544L65.9618 37.6237L70.5073 36.1723L63.1582 51.5421L62.4534 40.7475L58.817 41.9085L58.2404 33.0765L65.5133 30.7544Z" fill="white"/>
</svg>
