<svg width="145" height="145" viewBox="0 0 145 145" fill="none" xmlns="http://www.w3.org/2000/svg">
<rect x="4" width="137" height="127" fill="#F17148"/>
<path d="M78.5419 18.125C55.7648 18.125 37.3982 35.9479 36.2502 58.3625L24.6502 73.6479C23.2002 75.5208 24.6502 78.5417 27.1877 78.5417H36.2502V96.6667C36.2502 103.373 41.6273 108.75 48.3336 108.75H54.3752V126.875H96.6669V98.5396C110.986 91.7729 120.834 77.3333 120.834 60.4167C120.834 37.0958 101.984 18.125 78.5419 18.125ZM103.071 57.8187L91.2294 60.9604L99.9294 69.7208C100.944 70.7399 101.514 72.1193 101.514 73.5573C101.514 74.9953 100.944 76.3747 99.9294 77.3937C98.9104 78.4083 97.5309 78.9779 96.0929 78.9779C94.655 78.9779 93.2755 78.4083 92.2565 77.3937L83.4357 68.6937L80.3544 80.5354C79.6294 83.4958 76.6086 85.1875 73.769 84.4021C73.0745 84.2268 72.4221 83.9145 71.85 83.4836C71.2779 83.0526 70.7977 82.5117 70.4375 81.8927C70.0773 81.2736 69.8444 80.5888 69.7525 79.8785C69.6606 79.1681 69.7115 78.4466 69.9023 77.7562L73.1044 65.8542L61.2023 69.0563C60.5119 69.2496 59.7898 69.3025 59.0786 69.2117C58.3674 69.121 57.6817 68.8884 57.062 68.5279C56.4423 68.1673 55.9012 67.6861 55.4709 67.1127C55.0405 66.5393 54.7296 65.8853 54.5565 65.1896C53.7711 62.35 55.4627 59.3292 58.4232 58.6042L70.2648 55.5229L61.5648 46.7021C60.6559 45.664 60.1756 44.3191 60.2213 42.9401C60.267 41.561 60.8353 40.2509 61.8109 39.2753C62.7866 38.2996 64.0967 37.7313 65.4757 37.6856C66.8548 37.6399 68.1996 38.1202 69.2377 39.0292L77.9982 47.7292L81.1398 35.8875C81.3092 35.2085 81.6111 34.5696 82.028 34.0075C82.4448 33.4453 82.9686 32.9711 83.5692 32.6118C84.1698 32.2526 84.8354 32.0155 85.5279 31.914C86.2203 31.8126 86.926 31.8489 87.6044 32.0208C90.6252 32.8063 92.3169 35.7667 91.5919 38.7271L88.3898 50.5687L100.231 47.3667C100.934 47.1855 101.665 47.1451 102.383 47.2478C103.101 47.3504 103.791 47.594 104.415 47.9647C105.038 48.3353 105.582 48.8256 106.015 49.4073C106.448 49.9891 106.761 50.6507 106.938 51.3542C107.11 52.0326 107.146 52.7382 107.045 53.4307C106.943 54.1231 106.706 54.7887 106.347 55.3894C105.988 55.99 105.513 56.5137 104.951 56.9306C104.389 57.3475 103.75 57.6493 103.071 57.8187Z" fill="white"/>
<rect x="54" y="30" width="54" height="56" fill="white"/>
<rect x="83.5615" y="27" width="39" height="32.5152" rx="16.2576" transform="rotate(41.5375 83.5615 27)" fill="#2B7FFF"/>
<rect x="52" y="47.2852" width="39" height="12.7721" rx="6.38606" transform="rotate(-1.88832 52 47.2852)" fill="#2B7FFF"/>
<rect x="65.2324" y="35" width="17.5745" height="12.7721" rx="6.38606" transform="rotate(34.4903 65.2324 35)" fill="#2B7FFF"/>
<path d="M87.9109 35.7561C86.7868 34.4576 85.3449 33.4734 83.7262 32.8997C82.1075 32.326 80.3675 32.1825 78.6767 32.4832C76.9859 32.784 75.4022 33.5186 74.0806 34.6154C72.759 35.7121 71.7449 37.1332 71.1375 38.7396C69.8319 38.1552 68.3999 37.9099 66.9742 38.0262C65.5485 38.1426 64.1752 38.6168 62.9815 39.405C61.7879 40.1933 60.8124 41.27 60.1456 42.5355C59.4787 43.801 59.1421 45.2143 59.1667 46.6446M87.9109 35.7561C90.2388 35.02 92.7292 34.9679 95.0859 35.6058C97.4427 36.2438 99.5667 37.545 101.206 39.3548C102.844 41.1646 103.929 43.4069 104.331 45.8152C104.732 48.2235 104.434 50.6965 103.472 52.9402M87.9109 35.7561C85.5585 36.5027 83.4726 37.9147 81.9054 39.8213C80.3382 41.7279 79.3566 44.0476 79.0794 46.5001M59.1667 46.6446C58.1969 46.4476 57.1965 46.4533 56.2302 46.6666C55.2638 46.88 54.3529 47.2934 53.5561 47.8804C52.7593 48.4673 52.0943 49.2147 51.6041 50.0744C51.1138 50.934 50.8091 51.8869 50.7097 52.8715C50.6102 53.8561 50.7182 54.8507 51.0266 55.791C51.3351 56.7314 51.8371 57.5966 52.5004 58.3311C53.1638 59.0655 53.9736 59.6528 54.8778 60.0551C55.782 60.4574 56.7604 60.6657 57.75 60.6667H70.6417M59.1667 46.6446C59.2035 48.7667 60.0167 50.6934 61.3314 52.1667M103.472 52.9402C102.499 52.4434 101.425 52.1781 100.333 52.1652C99.2405 52.1523 98.1603 52.3921 97.1763 52.8659C96.1922 53.3397 95.3311 54.0346 94.6601 54.8963C93.9891 55.758 93.5265 56.7632 93.3084 57.8334M103.472 52.9402C104.889 53.6632 106.021 54.8422 106.687 56.2874C107.352 57.7326 107.512 59.3597 107.14 60.9066C106.768 62.4535 105.886 63.8301 104.636 64.8145C103.386 65.799 101.841 66.334 100.25 66.3334C99.4573 66.3339 98.6765 66.5264 97.9744 66.8944C97.2722 67.2623 96.6696 67.7948 96.218 68.4463C95.7664 69.0978 95.4793 69.849 95.3811 70.6356C95.283 71.4222 95.3767 72.2209 95.6544 72.9634L97.4167 77.6667M70.6417 60.6667C70.9683 62.2667 71.8376 63.7046 73.1026 64.7372C74.3676 65.7699 75.9505 66.3337 77.5834 66.3334C78.3059 66.3334 78.6657 66.3334 79 66.3731C79.8199 66.4705 80.6086 66.7459 81.3109 67.18C82.0132 67.6141 82.6122 68.1964 83.0659 68.8862C83.25 69.1667 83.4115 69.4897 83.7345 70.1329L87.5 77.6667M70.6417 60.6667C70.3736 59.3523 70.4842 57.9888 70.9607 56.7349C71.4372 55.4809 72.26 54.388 73.3334 53.5834" stroke="#2B7FFF" stroke-width="6.25" stroke-linecap="round" stroke-linejoin="round"/>
<rect x="85" y="65" width="13" height="16" rx="2" fill="#2B7FFF"/>
<path fill-rule="evenodd" clip-rule="evenodd" d="M99.1283 53.9555L95.7464 57.3056L98.5658 59.0197L87.2101 62.1558L92.5246 56.8914L90.269 55.5201L94.6172 51.2129L99.1283 53.9555Z" fill="white"/>
<path fill-rule="evenodd" clip-rule="evenodd" d="M85.0626 33.8172L85.6237 42.4118L91.3109 40.5959L82.116 59.8258L81.2343 46.3201L76.6845 47.7728L75.9631 36.7226L85.0626 33.8172Z" fill="white"/>
</svg>
