<svg width="24" height="24" viewBox="0 0 24 24" fill="none" xmlns="http://www.w3.org/2000/svg">
<path d="M12 1C5.92501 1 1.00001 5.925 1.00001 12C1.00001 14.392 1.76501 16.608 3.06201 18.413L0.196014 23H12C18.075 23 23 18.075 23 12C23 5.925 18.075 1 12 1Z" fill="#2B7FFF"/>
<path fill-rule="evenodd" clip-rule="evenodd" d="M9.93801 9.5C9.93801 8.96957 10.1487 8.46086 10.5238 8.08579C10.8989 7.71071 11.4076 7.5 11.938 7.5C12.4684 7.5 12.9772 7.71071 13.3522 8.08579C13.7273 8.46086 13.938 8.96957 13.938 9.5V9.606L11.273 11.975L10.938 12.273V14.5H12.938V13.171L15.602 10.803L15.937 10.505V9.5C15.937 8.43913 15.5156 7.42172 14.7654 6.67157C14.0153 5.92143 12.9979 5.5 11.937 5.5C10.8761 5.5 9.85873 5.92143 9.10858 6.67157C8.35844 7.42172 7.93701 8.43913 7.93701 9.5V10.056H9.93701L9.93801 9.5ZM10.938 16V18H12.938V16H10.938Z" fill="white"/>
</svg>
