<svg width="137" height="130" viewBox="0 0 137 130" fill="none" xmlns="http://www.w3.org/2000/svg">
<rect width="137" height="127" fill="#2B7FFF"/>
<path d="M83.5 127H23V88.8941C23 75.2747 30.5089 66.7924 34.2634 64.2537C44.3554 57.4439 58.292 57.5335 63.9988 58.4296C82.522 61.5611 90.5604 73.9301 93.7141 78.8581L107.959 100.734C112.644 110.411 109.32 120.309 105.415 122.101C95.3832 126.02 92.5891 121.504 90.196 117.636L90.153 117.567L86.0751 109.951C84.9938 108.517 84.1227 109.353 83.8224 109.951L83.5 127Z" fill="white"/>
<circle cx="55" cy="33" r="20" fill="#FAE164"/>
<circle cx="95.2405" cy="65.9084" r="25.4367" fill="#F17148"/>
<path d="M78.4521 66.9259L85.0657 59.2949" stroke="white" stroke-width="6" stroke-linecap="round"/>
<path d="M86.083 69.4696L92.6966 61.8386" stroke="white" stroke-width="6" stroke-linecap="round"/>
<path d="M93.2056 73.0224L96.5138 69.1576" stroke="white" stroke-width="6" stroke-linecap="round"/>
<path d="M87.1006 111.617L108.083 100.587L111.96 107.962C115.006 113.756 112.778 120.922 106.983 123.968C101.189 127.014 94.023 124.786 90.9773 118.992L87.1006 111.617Z" fill="#FAE164"/>
</svg>
