<svg width="24" height="24" viewBox="0 0 24 24" fill="none" xmlns="http://www.w3.org/2000/svg">
<rect width="24" height="24" rx="12" fill="#FFE100"/>
<path d="M11.9992 4.5C16.4183 4.5 20 7.34783 20 10.8618C20 14.3749 16.4183 17.2227 12 17.2227C11.5601 17.2219 11.1206 17.1934 10.6842 17.1372L7.32571 19.378C6.944 19.584 6.80914 19.5615 6.9661 19.057L7.64571 16.1983C5.45143 15.0636 4 13.0971 4 10.8618C4 7.34861 7.58095 4.5 12 4.5M16.5013 10.7646L17.6213 9.6578C17.686 9.58934 17.722 9.49795 17.7219 9.4029C17.7218 9.30785 17.6855 9.21656 17.6207 9.14825C17.5559 9.07994 17.4677 9.03995 17.3746 9.0367C17.2815 9.03345 17.1907 9.0672 17.1215 9.13083L15.6526 10.5812V9.38266C15.6526 9.28536 15.6147 9.19205 15.5472 9.12325C15.4798 9.05445 15.3883 9.0158 15.293 9.0158C15.1976 9.0158 15.1061 9.05445 15.0387 9.12325C14.9712 9.19205 14.9333 9.28536 14.9333 9.38266V11.3701C14.9207 11.4269 14.9207 11.4858 14.9333 11.5426V12.6611C14.9333 12.7584 14.9712 12.8517 15.0387 12.9205C15.1061 12.9893 15.1976 13.0279 15.293 13.0279C15.3883 13.0279 15.4798 12.9893 15.5472 12.9205C15.6147 12.8517 15.6526 12.7584 15.6526 12.6611V11.6017L15.9779 11.2807L17.0659 12.8608C17.0931 12.9003 17.1276 12.9339 17.1675 12.9597C17.2074 12.9856 17.2519 13.0031 17.2984 13.0114C17.345 13.0197 17.3927 13.0186 17.4388 13.0081C17.4849 12.9976 17.5286 12.9779 17.5672 12.9502C17.6059 12.9225 17.6389 12.8873 17.6642 12.8466C17.6895 12.8059 17.7067 12.7605 17.7149 12.713C17.723 12.6655 17.7219 12.6169 17.7116 12.5698C17.7013 12.5228 17.682 12.4782 17.6549 12.4388L16.5013 10.7646ZM14.2476 12.26H13.1352V9.39432C13.131 9.30004 13.0913 9.21107 13.0244 9.14589C12.9575 9.08071 12.8685 9.04434 12.776 9.04434C12.6835 9.04434 12.5945 9.08071 12.5276 9.14589C12.4607 9.21107 12.421 9.30004 12.4168 9.39432V12.6269C12.4168 12.829 12.5768 12.9937 12.7756 12.9937H14.2476C14.343 12.9937 14.4345 12.9551 14.5019 12.8863C14.5694 12.8175 14.6072 12.7242 14.6072 12.6269C14.6072 12.5296 14.5694 12.4363 14.5019 12.3675C14.4345 12.2987 14.343 12.26 14.2476 12.26ZM9.78514 11.412L10.3154 10.0845L10.8015 11.4113L9.78514 11.412ZM11.7074 11.7906L11.709 11.7781C11.7087 11.6857 11.6741 11.5969 11.6122 11.5294L10.8152 9.35313C10.7818 9.24942 10.7182 9.15858 10.6328 9.09274C10.5475 9.02691 10.4444 8.98922 10.3375 8.98471C10.2299 8.98466 10.1248 9.01782 10.036 9.07982C9.94722 9.14183 9.87889 9.22979 9.84 9.33214L8.57371 12.4994C8.53765 12.5895 8.53813 12.6905 8.57507 12.7802C8.612 12.8699 8.68236 12.941 8.77067 12.9778C8.85897 13.0146 8.95799 13.0141 9.04593 12.9764C9.13388 12.9388 9.20355 12.867 9.23962 12.7769L9.49257 12.145H11.0697L11.2968 12.7668C11.3123 12.8133 11.3367 12.8561 11.3687 12.8928C11.4007 12.9294 11.4396 12.9591 11.4831 12.9802C11.5266 13.0012 11.5738 13.0131 11.6219 13.0152C11.6699 13.0173 11.7179 13.0096 11.763 12.9924C11.8081 12.9752 11.8493 12.949 11.8843 12.9153C11.9193 12.8816 11.9473 12.841 11.9666 12.7961C11.9859 12.7511 11.9962 12.7027 11.9968 12.6536C11.9975 12.6045 11.9884 12.5558 11.9703 12.5103L11.7074 11.7906ZM9.17562 9.39821C9.17582 9.35004 9.16668 9.3023 9.14873 9.25775C9.13077 9.2132 9.10436 9.17271 9.07101 9.13861C9.03765 9.10452 8.99802 9.07749 8.95439 9.05908C8.91075 9.04067 8.86398 9.03124 8.81676 9.03134H6.34438C6.249 9.03134 6.15753 9.07 6.09009 9.1388C6.02265 9.2076 5.98476 9.30091 5.98476 9.39821C5.98476 9.4955 6.02265 9.58881 6.09009 9.65761C6.15753 9.72641 6.249 9.76507 6.34438 9.76507H7.22819V12.6689C7.22819 12.7662 7.26608 12.8595 7.33352 12.9283C7.40096 12.9971 7.49243 13.0357 7.58781 13.0357C7.68319 13.0357 7.77466 12.9971 7.8421 12.9283C7.90954 12.8595 7.94743 12.7662 7.94743 12.6689V9.76507H8.816C8.86328 9.76527 8.91014 9.75592 8.95386 9.73756C8.99758 9.71919 9.0373 9.69218 9.07074 9.65807C9.10417 9.62397 9.13065 9.58344 9.14866 9.53884C9.16666 9.49424 9.17582 9.44644 9.17562 9.39821Z" fill="black"/>
</svg>
