<svg width="137" height="127" viewBox="0 0 137 127" fill="none" xmlns="http://www.w3.org/2000/svg">
<path d="M0 0H137V127H0V0Z" fill="#2B7FFF"/>
<path d="M52 0L76 29L41 0H52Z" fill="white"/>
<path d="M76.5 29L41 0H26H0V7V15V30L30.5 52.5C32.9 54.5 32.5 58.6667 32 60.5C20 91.7 26 117.833 29.5 127H54H79L88 69.5L76.5 29Z" fill="white"/>
<ellipse cx="63.5" cy="56.1006" rx="29.5" ry="30" fill="white"/>
<path fill-rule="evenodd" clip-rule="evenodd" d="M119.433 56.6236L112.867 59.972L116.219 63.828L97.9928 63.1058L108.31 57.8439L105.63 54.7591L114.071 50.4539L119.433 56.6236Z" fill="white"/>
<rect x="24.0469" y="1.05701" width="53.4922" height="19.1044" transform="rotate(42.4321 24.0469 1.05701)" fill="#F17148"/>
<rect x="42" y="122.883" width="55" height="19" transform="rotate(-77.9195 42 122.883)" fill="#F17148"/>
<path d="M70.9267 62.814C72.9543 64.8136 73.9088 68.0634 72.9921 71.3345C71.0556 78.242 60.2334 80.9253 58.5269 80.4882C56.8204 80.0511 48.6198 72.4953 50.2435 65.5077C51.0123 62.1986 53.4113 59.809 56.1508 59.0293C58.7131 58.3024 61.516 59.0118 63.3823 61.5326C66.2305 60.2194 69.0297 60.9437 70.9267 62.814Z" fill="#F17148"/>
<path fill-rule="evenodd" clip-rule="evenodd" d="M114.75 17.6006L111.702 29.8506H120.452L99.0413 52.6006L103.831 33.3506H96.8311L100.75 17.6006H114.75Z" fill="white"/>
<path d="M53.8106 52.2625C51.0314 52.8836 47.7827 51.9255 45.5297 49.3829C40.7726 44.0132 44.3796 33.4629 45.6714 32.2653C46.9633 31.0677 57.7568 28.2676 62.7508 33.4178C65.1158 35.8565 65.8248 39.1675 64.9962 41.8926C64.2192 44.4402 62.1044 46.4119 58.9746 46.6151C58.5355 49.7206 56.4104 51.6811 53.8106 52.2625Z" fill="#F17148"/>
<path d="M41 127L42 123L63.5 113.5L60.5 127H41Z" fill="#F17148"/>
<path d="M0 4.5L11 15L24 1L23 0H0V4.5Z" fill="#F17148"/>
<path d="M11 15L24 1" stroke="#F17148"/>
<path fill-rule="evenodd" clip-rule="evenodd" d="M119.433 56.6236L112.867 59.972L116.219 63.828L97.9928 63.1058L108.31 57.8439L105.63 54.7591L114.071 50.4539L119.433 56.6236Z" fill="white"/>
</svg>
