<svg width="20" height="20" viewBox="0 0 20 20" fill="none" xmlns="http://www.w3.org/2000/svg">
<rect width="20" height="20" rx="10" fill="#AEB0B6"/>
<path d="M11.655 8.34511C13.0553 9.74688 13.0361 11.9943 11.6634 13.3745C11.6608 13.3774 11.6578 13.3804 11.655 13.3832L10.08 14.9582C8.69084 16.3474 6.43079 16.3472 5.04186 14.9582C3.65271 13.5693 3.65271 11.309 5.04186 9.9201L5.91153 9.05043C6.14215 8.81981 6.53932 8.97309 6.55123 9.29901C6.56642 9.71437 6.6409 10.1317 6.77834 10.5347C6.82489 10.6711 6.79163 10.822 6.68968 10.924L6.38295 11.2307C5.72609 11.8876 5.70549 12.9571 6.35588 13.6204C7.01269 14.2902 8.09227 14.2942 8.75412 13.6324L10.3291 12.0576C10.9898 11.3969 10.9871 10.3289 10.3291 9.67096C10.2424 9.58438 10.155 9.51712 10.0868 9.47013C10.0385 9.43697 9.99861 9.39298 9.97034 9.34169C9.94208 9.29039 9.92618 9.2332 9.92393 9.17467C9.91465 8.92701 10.0024 8.6718 10.1981 8.4761L10.6916 7.98262C10.821 7.85322 11.024 7.83733 11.174 7.94205C11.3458 8.06204 11.5068 8.19691 11.655 8.34511ZM14.9581 5.04178C13.5692 3.65283 11.3092 3.65265 9.92002 5.04178L8.34502 6.61678C8.34221 6.61959 8.33916 6.62264 8.33658 6.62545C6.96394 8.00573 6.9447 10.2531 8.34502 11.6549C8.49322 11.8031 8.65416 11.9379 8.82598 12.0579C8.97603 12.1626 9.17904 12.1467 9.30842 12.0174L9.80187 11.5239C9.99758 11.3282 10.0853 11.073 10.076 10.8253C10.0738 10.7668 10.0579 10.7096 10.0296 10.6583C10.0014 10.607 9.9615 10.563 9.91322 10.5299C9.84497 10.4829 9.7576 10.4156 9.67086 10.329C9.0129 9.67106 9.01013 8.6031 9.67086 7.94238L11.2459 6.36762C11.9077 5.70577 12.9873 5.70975 13.6441 6.37957C14.2945 7.04285 14.2739 8.11239 13.617 8.76925L13.3103 9.07598C13.2084 9.17793 13.1751 9.32887 13.2216 9.46532C13.3591 9.86831 13.4336 10.2856 13.4487 10.701C13.4607 11.0269 13.8578 11.1802 14.0885 10.9495L14.9581 10.0799C16.3473 8.69099 16.3473 6.43069 14.9581 5.04178Z" fill="white"/>
</svg>
