<svg width="24" height="24" viewBox="0 0 24 24" fill="none" xmlns="http://www.w3.org/2000/svg">
<path d="M6.375 10.125H6C5.29289 10.125 4.93934 10.125 4.71967 10.3447C4.5 10.5643 4.5 10.9179 4.5 11.625V18C4.5 18.7071 4.5 19.0606 4.71967 19.2803C4.93934 19.5 5.29289 19.5 6 19.5H6.375C7.08211 19.5 7.43566 19.5 7.65533 19.2803C7.875 19.0606 7.875 18.7071 7.875 18V11.625C7.875 10.9179 7.875 10.5643 7.65533 10.3447C7.43566 10.125 7.08211 10.125 6.375 10.125Z" stroke="#4F5563" stroke-width="1.125"/>
<path d="M7.875 6.1875C7.875 7.11948 7.11948 7.875 6.1875 7.875C5.25552 7.875 4.5 7.11948 4.5 6.1875C4.5 5.25552 5.25552 4.5 6.1875 4.5C7.11948 4.5 7.875 5.25552 7.875 6.1875Z" stroke="#4F5563" stroke-width="1.125"/>
<path d="M12.2445 10.125H11.625C10.9179 10.125 10.5643 10.125 10.3447 10.3447C10.125 10.5643 10.125 10.9179 10.125 11.625V18C10.125 18.7071 10.125 19.0606 10.3447 19.2803C10.5643 19.5 10.9179 19.5 11.625 19.5H12C12.7071 19.5 13.0606 19.5 13.2803 19.2803C13.5 19.0606 13.5 18.7071 13.5 18L13.5001 15.3751C13.5001 14.1325 13.8961 13.1251 15.0659 13.1251C15.6508 13.1251 16.125 13.6288 16.125 14.2501V17.6251C16.125 18.3322 16.125 18.6857 16.3447 18.9054C16.5643 19.1251 16.9179 19.1251 17.625 19.1251H17.999C18.706 19.1251 19.0594 19.1251 19.2791 18.9055C19.4988 18.6859 19.4989 18.3324 19.499 17.6255L19.5001 13.5002C19.5001 11.6363 17.7273 10.1252 15.9726 10.1252C14.9737 10.1252 14.0825 10.6148 13.5001 11.3805C13.5 10.9079 13.5 10.6717 13.3974 10.4962C13.3324 10.3851 13.2398 10.2926 13.1288 10.2277C12.9533 10.125 12.7171 10.125 12.2445 10.125Z" stroke="#4F5563" stroke-width="1.125" stroke-linejoin="round"/>
</svg>
