<svg width="137" height="128" viewBox="0 0 137 128" fill="none" xmlns="http://www.w3.org/2000/svg">
<rect width="137" height="127" fill="#F17148"/>
<circle cx="70" cy="41" r="21" fill="#FAE164"/>
<path d="M57 89.5C57 75.4167 68.4167 64 82.5 64H84.5C98.5833 64 110 75.4167 110 89.5V127H57V89.5Z" fill="#2B7FFF"/>
<path d="M30.0004 127.1H54.0004L66.5004 102.1C67.7004 100.1 67.6671 96.9329 67.5004 95.5996C66.7004 92.3996 61.5004 89.9329 59.0004 89.0996L63.0004 78.5996C63.8004 76.1996 62.0004 74.5997 61.0004 74.0997C58.6004 73.6997 57.3337 74.5997 57.0004 75.0997L30.0004 127.1Z" fill="#FAE164"/>
<path d="M40.7052 46.6165C42.3377 46.8509 42.9752 45.8806 43.0899 45.3662C43.3651 44.1317 42.0394 43.296 41.3422 43.0325L24.6594 37.2074C22.1493 36.259 21.063 38.0796 20.8336 39.1084C20.2832 41.5776 22.5348 42.6196 23.7294 42.8319L40.7052 46.6165Z" fill="white" stroke="white"/>
<path d="M42.8945 58.1401C44.4452 57.5787 45.2667 58.399 45.4836 58.8793C46.0042 60.0321 44.8761 61.1199 44.247 61.5197L29.0974 70.6158C26.8327 72.0548 25.3989 70.4932 24.9651 69.5325C23.9239 67.2268 25.9166 65.7488 27.0431 65.2979L42.8945 58.1401Z" fill="white" stroke="white"/>
<path d="M42.2723 53.6478C43.878 53.2712 44.1181 52.1354 44.0375 51.6146C43.844 50.3646 42.305 50.0694 41.5596 50.0781L23.9012 50.7321C21.2181 50.7635 20.8698 52.8547 21.0311 53.8964C21.4182 56.3964 23.8947 56.5463 25.0845 56.3088L42.2723 53.6478Z" fill="white" stroke="white"/>
</svg>
