<svg width="20" height="20" viewBox="0 0 20 20" fill="none" xmlns="http://www.w3.org/2000/svg">
<mask id="mask0_2044_12233" style="mask-type:alpha" maskUnits="userSpaceOnUse" x="1" y="1" width="18" height="18">
<path d="M2.36052 8.60965C2.17632 8.60965 1.99968 8.53648 1.86943 8.40624C1.73919 8.27599 1.66602 8.09934 1.66602 7.91515V2.36052C1.66602 2.17632 1.73919 1.99968 1.86943 1.86943C1.99968 1.73919 2.17632 1.66602 2.36052 1.66602H7.91654C8.10073 1.66602 8.27738 1.73919 8.40762 1.86943C8.53787 1.99968 8.61104 2.17632 8.61104 2.36052V7.91515C8.61104 8.09934 8.53787 8.27599 8.40762 8.40624C8.27738 8.53648 8.10073 8.60965 7.91654 8.60965H2.36052ZM12.0836 8.60965C11.8994 8.60965 11.7227 8.53648 11.5925 8.40624C11.4622 8.27599 11.389 8.09934 11.389 7.91515V2.36052C11.389 2.17632 11.4622 1.99968 11.5925 1.86943C11.7227 1.73919 11.8994 1.66602 12.0836 1.66602H17.6382C17.8224 1.66602 17.999 1.73919 18.1293 1.86943C18.2595 1.99968 18.3327 2.17632 18.3327 2.36052V7.91515C18.3327 8.09934 18.2595 8.27599 18.1293 8.40624C17.999 8.53648 17.8224 8.60965 17.6382 8.60965H12.0836ZM2.36052 18.3327C2.17632 18.3327 1.99968 18.2595 1.86943 18.1293C1.73919 17.999 1.66602 17.8224 1.66602 17.6382V12.0822C1.66602 11.898 1.73919 11.7213 1.86943 11.5911C1.99968 11.4608 2.17632 11.3877 2.36052 11.3877H7.91654C8.10073 11.3877 8.27738 11.4608 8.40762 11.5911C8.53787 11.7213 8.61104 11.898 8.61104 12.0822V17.6382C8.61104 17.8224 8.53787 17.999 8.40762 18.1293C8.27738 18.2595 8.10073 18.3327 7.91654 18.3327H2.36052ZM12.0836 18.3327C11.8994 18.3327 11.7227 18.2595 11.5925 18.1293C11.4622 17.999 11.389 17.8224 11.389 17.6382V12.0822C11.389 11.898 11.4622 11.7213 11.5925 11.5911C11.7227 11.4608 11.8994 11.3877 12.0836 11.3877H17.6382C17.8224 11.3877 17.999 11.4608 18.1293 11.5911C18.2595 11.7213 18.3327 11.898 18.3327 12.0822V17.6382C18.3327 17.8224 18.2595 17.999 18.1293 18.1293C17.999 18.2595 17.8224 18.3327 17.6382 18.3327H12.0836Z" fill="black"/>
</mask>
<g mask="url(#mask0_2044_12233)">
<rect y="-0.00195312" width="20" height="20" fill="#2B7FFF"/>
</g>
</svg>
