<svg width="24" height="24" viewBox="0 0 24 24" fill="none" xmlns="http://www.w3.org/2000/svg">
<path fill-rule="evenodd" clip-rule="evenodd" d="M21.6004 12.0004C21.6004 17.3023 17.3023 21.6004 12.0004 21.6004C6.69846 21.6004 2.40039 17.3023 2.40039 12.0004C2.40039 6.69846 6.69846 2.40039 12.0004 2.40039C17.3023 2.40039 21.6004 6.69846 21.6004 12.0004ZM14.4004 8.40039C14.4004 9.72587 13.3259 10.8004 12.0004 10.8004C10.6749 10.8004 9.60039 9.72587 9.60039 8.40039C9.60039 7.07491 10.6749 6.00039 12.0004 6.00039C13.3259 6.00039 14.4004 7.07491 14.4004 8.40039ZM12.0003 13.2004C9.57926 13.2004 7.49312 14.6343 6.54487 16.6993C7.86523 18.2308 9.81957 19.2004 12.0004 19.2004C14.1811 19.2004 16.1354 18.2309 17.4558 16.6993C16.5076 14.6344 14.4214 13.2004 12.0003 13.2004Z" fill="#2B7FFF"/>
</svg>
