<svg width="24" height="24" viewBox="0 0 24 24" fill="none" xmlns="http://www.w3.org/2000/svg">
<path d="M10.9784 0.400781C11.5549 -0.133594 12.4456 -0.133594 13.0174 0.400781L17.2502 4.32422V3.74766C17.2502 2.91797 17.9206 2.24766 18.7502 2.24766H20.2502C21.0799 2.24766 21.7502 2.91797 21.7502 3.74766V8.50547L23.5221 10.1508C23.9721 10.5727 24.1221 11.2242 23.8971 11.7961C23.6721 12.368 23.119 12.7477 22.5002 12.7477H21.7502V20.9977C21.7502 22.6523 20.4049 23.9977 18.7502 23.9977H5.25025C3.59556 23.9977 2.25025 22.6523 2.25025 20.9977V12.7477H1.50025C0.881497 12.7477 0.328372 12.368 0.103372 11.7961C-0.121628 11.2242 0.028372 10.568 0.478372 10.1508L10.9784 0.400781ZM10.5002 11.6227V13.4977H8.62525C8.21275 13.4977 7.87525 13.8352 7.87525 14.2477V15.7477C7.87525 16.1602 8.21275 16.4977 8.62525 16.4977H10.5002V18.3727C10.5002 18.7852 10.8377 19.1227 11.2502 19.1227H12.7502C13.1627 19.1227 13.5002 18.7852 13.5002 18.3727V16.4977H15.3752C15.7877 16.4977 16.1252 16.1602 16.1252 15.7477V14.2477C16.1252 13.8352 15.7877 13.4977 15.3752 13.4977H13.5002V11.6227C13.5002 11.2102 13.1627 10.8727 12.7502 10.8727H11.2502C10.8377 10.8727 10.5002 11.2102 10.5002 11.6227Z" fill="#2B7FFF"/>
</svg>
