<svg width="14" height="16" viewBox="0 0 14 16" fill="none" xmlns="http://www.w3.org/2000/svg">
<path fill-rule="evenodd" clip-rule="evenodd" d="M5.00096 1.0001C5.00096 0.73486 5.10631 0.480479 5.29385 0.292924C5.48139 0.105368 5.73574 0 6.00096 0L8.00095 0C8.26617 0 8.52052 0.105368 8.70806 0.292924C8.8956 0.480479 9.00095 0.73486 9.00095 1.0001C9.00095 1.26535 8.8956 1.51973 8.70806 1.70728C8.52052 1.89484 8.26617 2.00021 8.00095 2.00021V2.07021C9.00381 2.21521 9.96324 2.57623 10.813 3.12832L11.7209 2.22023C11.7896 2.14654 11.8724 2.08743 11.9644 2.04643C12.0564 2.00544 12.1557 1.98339 12.2564 1.98161C12.3571 1.97984 12.4572 1.99836 12.5505 2.03609C12.6439 2.07381 12.7288 2.12996 12.8 2.20119C12.8712 2.27242 12.9273 2.35726 12.9651 2.45066C13.0028 2.54405 13.0213 2.64409 13.0195 2.74481C13.0178 2.84552 12.9957 2.94484 12.9547 3.03685C12.9137 3.12886 12.8546 3.21167 12.7809 3.28034L11.9809 4.08042C13.0873 5.20097 13.7836 6.66183 13.9573 8.22698C14.131 9.79213 13.772 11.3701 12.9382 12.706C12.1045 14.0419 10.8448 15.0577 9.3626 15.5892C7.8804 16.1207 6.26231 16.1369 4.76977 15.6352C3.27723 15.1335 1.99743 14.1431 1.13714 12.8242C0.276849 11.5052 -0.113673 9.93472 0.0286701 8.36641C0.171013 6.7981 0.837907 5.32359 1.9216 4.18112C3.00529 3.03865 4.44248 2.29497 6.00096 2.07021V2.00021C5.73574 2.00021 5.48139 1.89484 5.29385 1.70728C5.10631 1.51973 5.00096 1.26535 5.00096 1.0001ZM12.5009 9.00093C12.5009 10.4598 11.9215 11.8589 10.89 12.8904C9.85859 13.922 8.45964 14.5015 7.00096 14.5015C5.54227 14.5015 4.14332 13.922 3.11187 12.8904C2.08042 11.8589 1.50096 10.4598 1.50096 9.00093C1.50096 7.54209 2.08042 6.143 3.11187 5.11144C4.14332 4.07989 5.54227 3.50036 7.00096 3.50036C8.45964 3.50036 9.85859 4.07989 10.89 5.11144C11.9215 6.143 12.5009 7.54209 12.5009 9.00093ZM7.75095 5.7506C7.75095 5.55166 7.67194 5.36088 7.53128 5.22021C7.39063 5.07954 7.19987 5.00052 7.00096 5.00052C6.80204 5.00052 6.61128 5.07954 6.47063 5.22021C6.32997 5.36088 6.25096 5.55166 6.25096 5.7506V9.31097L6.47096 9.53099L8.72495 11.7852C8.79362 11.8589 8.87642 11.918 8.96841 11.959C9.06041 12 9.15973 12.0221 9.26043 12.0238C9.36113 12.0256 9.46116 12.0071 9.55455 11.9694C9.64794 11.9316 9.73277 11.8755 9.80399 11.8043C9.87521 11.733 9.93135 11.6482 9.96907 11.5548C10.0068 11.4614 10.0253 11.3614 10.0235 11.2606C10.0218 11.1599 9.99972 11.0606 9.95873 10.9686C9.91774 10.8766 9.85864 10.7938 9.78495 10.7251L7.75095 8.6899V5.7506Z" fill="#2B7FFF"/>
</svg>
