<svg width="50" height="50" viewBox="0 0 50 50" fill="none" xmlns="http://www.w3.org/2000/svg">
<rect width="50" height="50" rx="25" fill="#2B7FFF" fill-opacity="0.2"/>
<path d="M31.39 37.659C38.185 38.8845 43 42.0235 43 45.7V50H7V45.7C7 42.0235 11.815 38.8845 18.61 37.659L25 43.5L31.39 37.659ZM16 19.9H34V24.2C34 26.4809 33.0518 28.6683 31.364 30.2811C29.6761 31.8939 27.3869 32.8 25 32.8C22.6131 32.8 20.3239 31.8939 18.636 30.2811C16.9482 28.6683 16 26.4809 16 24.2V19.9ZM16 17.75L16.9225 8.93503C16.9785 8.40285 17.24 7.90972 17.6561 7.55192C18.0721 7.19412 18.6128 6.99735 19.1725 7.00003H30.85C31.9975 7.00003 32.965 7.83853 33.0775 8.93503L34 17.75H16ZM25 9.15003H22.75V11.3H20.5V13.45H22.75V15.6H25V13.45H27.25V11.3H25V9.15003Z" fill="#2B7FFF"/>
</svg>
