<svg width="1440" height="576" viewBox="0 0 1440 576" fill="none" xmlns="http://www.w3.org/2000/svg">
<g opacity="0.5">
<rect x="137" y="127" width="137" height="127" fill="#F17148"/>
<circle cx="235" cy="158" r="20" fill="#FAE164"/>
<path d="M191.396 200.818C191.396 187.895 201.872 177.418 214.796 177.418V177.418C227.719 177.418 238.196 187.895 238.196 200.818V254H191.396V200.818Z" fill="#2B7FFF"/>
<path d="M163.361 223.338C164.545 223.219 164.823 222.43 164.814 222.049C164.793 221.137 163.72 220.782 163.186 220.719L150.494 219.533C148.572 219.304 148.128 220.767 148.145 221.527C148.188 223.351 149.945 223.691 150.819 223.632L163.361 223.338Z" fill="white"/>
<path d="M167.35 230.918C168.418 230.202 169.193 230.669 169.447 230.992C170.057 231.766 169.407 232.801 169.006 233.221L159.25 242.94C157.806 244.453 156.429 243.54 155.92 242.895C154.701 241.346 155.931 239.854 156.699 239.302L167.35 230.918Z" fill="white"/>
<path d="M165.534 228.936C166.815 228.159 166.663 227.087 166.427 226.648C165.86 225.594 164.422 225.758 163.775 225.971L148.572 231.423C146.241 232.192 146.603 234.14 147.075 235.018C148.209 237.125 150.418 236.574 151.381 236.035L165.534 228.936Z" fill="white"/>
<rect width="59.3081" height="19.5313" rx="9.11314" transform="matrix(0.951192 -0.308598 0.280575 0.959832 163.7 192.529)" fill="white"/>
<rect width="46.7295" height="18.5869" rx="8.73743" transform="matrix(0.308637 0.95118 -0.940849 0.338826 181.229 186.99)" fill="white"/>
<mask id="mask0_1766_6884" style="mask-type:alpha" maskUnits="userSpaceOnUse" x="166" y="189" width="28" height="47">
<rect width="46.7295" height="18.5869" rx="8.73743" transform="matrix(0.308637 0.95118 -0.940849 0.338826 181.229 186.99)" fill="white"/>
</mask>
<g mask="url(#mask0_1766_6884)">
<rect x="171.187" y="220.451" width="21.119" height="23.9905" transform="rotate(-18.9815 171.187 220.451)" fill="#FAE164"/>
</g>
<rect x="274" width="137" height="127" fill="#2B7FFF"/>
<path d="M357.5 127H297V88.8941C297 75.2747 304.509 66.7924 308.263 64.2537C318.355 57.4439 332.292 57.5335 337.999 58.4296C356.522 61.5611 364.56 73.9301 367.714 78.8581L381.959 100.734C386.644 110.411 383.32 120.309 379.415 122.101C369.383 126.02 366.589 121.504 364.196 117.636L364.153 117.567L360.075 109.951C358.994 108.517 358.123 109.353 357.822 109.951L357.5 127Z" fill="white"/>
<circle cx="329" cy="33" r="20" fill="#FAE164"/>
<circle cx="369.24" cy="65.9094" r="25.4367" fill="#F17148"/>
<path d="M352.452 66.9259L359.066 59.2949" stroke="white" stroke-width="6" stroke-linecap="round"/>
<path d="M360.083 69.4689L366.697 61.8379" stroke="white" stroke-width="6" stroke-linecap="round"/>
<path d="M367.206 73.0224L370.514 69.1576" stroke="white" stroke-width="6" stroke-linecap="round"/>
<path d="M361.101 111.617L382.083 100.588L385.96 107.963C389.006 113.757 386.778 120.923 380.983 123.969V123.969C375.189 127.014 368.023 124.786 364.977 118.992L361.101 111.617Z" fill="#FAE164"/>
<rect x="1331" y="343" width="137" height="127" fill="#F17148"/>
<path d="M1385.76 389.571C1385.39 388.264 1385.39 386.894 1385.8 385.593L1387.43 380.447C1388.62 376.659 1392.81 374.51 1396.78 375.649L1399.18 376.337L1402.79 364.901C1403.98 361.112 1408.18 358.963 1412.15 360.103C1414.74 360.847 1416.59 362.797 1417.25 365.121C1418.89 362.146 1422.57 360.597 1426.06 361.599C1429.57 362.605 1431.73 365.845 1431.37 369.185C1432.66 368.87 1434.04 368.878 1435.41 369.269C1438.72 370.22 1440.85 373.168 1440.75 376.321C1441.68 376.243 1442.61 376.325 1443.56 376.596C1447.53 377.735 1449.78 381.733 1448.59 385.521L1444.22 399.373C1443.77 400.788 1442.99 402.091 1441.91 403.169L1432.41 412.774C1429.81 415.412 1425.87 416.416 1422.24 415.375L1394.6 407.447C1392.13 406.738 1390.21 404.879 1389.53 402.499L1385.76 389.571ZM1379.24 422.993L1381.4 416.132C1382.2 413.601 1384.99 412.172 1387.64 412.933L1426.01 423.94C1428.67 424.701 1430.17 427.36 1429.37 429.89L1427.2 436.752C1426.41 439.282 1423.62 440.712 1420.96 439.951L1382.59 428.944C1379.94 428.183 1378.44 425.524 1379.24 422.993Z" fill="#FAE164"/>
<path fill-rule="evenodd" clip-rule="evenodd" d="M1352.97 403.546L1359.86 407.057L1356.34 411.1L1375.45 410.342L1364.63 404.825L1367.45 401.591L1358.59 397.076L1352.97 403.546Z" fill="white"/>
<path fill-rule="evenodd" clip-rule="evenodd" d="M1358.25 365.5L1361.3 377.75H1352.55L1373.96 400.5L1369.17 381.25H1376.17L1372.25 365.5H1358.25Z" fill="white"/>
<path d="M1411.32 378.113L1417 361" stroke="#F17148" stroke-width="3" stroke-linecap="round"/>
<path d="M1425.32 382.113L1432 365" stroke="#F17148" stroke-width="3" stroke-linecap="round"/>
<path d="M1428.75 429.096L1420.35 470H1367L1379.35 421.23L1381.33 414.412C1382.51 410.637 1386.1 410.742 1387.75 411.266L1425.79 423.327C1429.34 424.586 1429.24 427.698 1428.75 429.096Z" fill="white"/>
<path d="M137 381H274V508H137V381Z" fill="#2B7FFF"/>
<path d="M189 381L213 410L178 381H189Z" fill="white"/>
<path d="M213.5 410L178 381H163H137V388V396V411L167.5 433.5C169.9 435.5 169.5 439.667 169 441.5C157 472.7 163 498.833 166.5 508H191H216L225 450.5L213.5 410Z" fill="white"/>
<ellipse cx="200.5" cy="437.102" rx="29.5" ry="30" fill="white"/>
<path fill-rule="evenodd" clip-rule="evenodd" d="M256.433 437.623L249.867 440.972L253.218 444.828L234.992 444.105L245.31 438.844L242.629 435.759L251.071 431.454L256.433 437.623Z" fill="white"/>
<rect x="161.046" y="382.057" width="53.4922" height="19.1044" transform="rotate(42.4321 161.046 382.057)" fill="#F17148"/>
<rect x="179" y="503.883" width="55" height="19" transform="rotate(-77.9195 179 503.883)" fill="#F17148"/>
<path d="M207.926 443.815C209.953 445.815 210.908 449.065 209.991 452.336C208.055 459.243 197.232 461.927 195.526 461.49C193.819 461.052 185.619 453.497 187.243 446.509C188.011 443.2 190.41 440.81 193.15 440.031C195.712 439.304 198.515 440.013 200.381 442.534C203.23 441.221 206.029 441.945 207.926 443.815Z" fill="#F17148"/>
<path fill-rule="evenodd" clip-rule="evenodd" d="M251.75 398.602L248.702 410.852H257.452L236.041 433.602L240.831 414.352H233.831L237.75 398.602H251.75Z" fill="white"/>
<path d="M190.81 433.262C188.031 433.884 184.782 432.925 182.529 430.383C177.772 425.013 181.379 414.463 182.671 413.265C183.963 412.068 194.756 409.268 199.75 414.418C202.115 416.857 202.824 420.168 201.996 422.893C201.219 425.44 199.104 427.412 195.974 427.615C195.535 430.721 193.41 432.681 190.81 433.262Z" fill="#F17148"/>
<path d="M178 508L179 504L200.5 494.5L197.5 508H178Z" fill="#F17148"/>
<path d="M137 385.5L148 396L161 382L160 381H137V385.5Z" fill="#F17148"/>
<path d="M148 396L161 382" stroke="#F17148"/>
</g>
<g opacity="0.5">
<rect x="1057" y="89" width="137" height="127" fill="#F17148"/>
<path d="M1131.21 106.125C1109.69 106.125 1092.33 122.965 1091.25 144.143L1080.29 158.585C1078.92 160.354 1080.29 163.208 1082.69 163.208H1091.25V180.333C1091.25 186.67 1096.33 191.75 1102.67 191.75H1108.38V208.875H1148.33V182.103C1161.86 175.71 1171.17 162.067 1171.17 146.083C1171.17 124.049 1153.36 106.125 1131.21 106.125ZM1154.38 143.629L1143.2 146.597L1151.42 154.874C1152.37 155.837 1152.91 157.14 1152.91 158.499C1152.91 159.858 1152.37 161.161 1151.42 162.124C1150.45 163.082 1149.15 163.621 1147.79 163.621C1146.43 163.621 1145.13 163.082 1144.17 162.124L1135.83 153.904L1132.92 165.092C1132.24 167.889 1129.38 169.488 1126.7 168.745C1126.04 168.58 1125.43 168.285 1124.89 167.878C1124.35 167.47 1123.89 166.959 1123.55 166.374C1123.21 165.79 1122.99 165.143 1122.9 164.471C1122.82 163.8 1122.87 163.119 1123.05 162.466L1126.07 151.221L1114.83 154.246C1114.17 154.429 1113.49 154.479 1112.82 154.393C1112.15 154.307 1111.5 154.088 1110.91 153.747C1110.33 153.406 1109.82 152.952 1109.41 152.41C1109 151.868 1108.71 151.25 1108.55 150.593C1107.8 147.91 1109.4 145.056 1112.2 144.371L1123.39 141.46L1115.17 133.125C1114.31 132.145 1113.86 130.874 1113.9 129.571C1113.94 128.268 1114.48 127.03 1115.4 126.108C1116.32 125.187 1117.56 124.65 1118.86 124.606C1120.17 124.563 1121.44 125.017 1122.42 125.876L1130.69 134.096L1133.66 122.908C1133.82 122.266 1134.11 121.662 1134.5 121.131C1134.9 120.6 1135.39 120.152 1135.96 119.813C1136.53 119.473 1137.15 119.249 1137.81 119.153C1138.46 119.057 1139.13 119.092 1139.77 119.254C1142.63 119.996 1144.22 122.793 1143.54 125.59L1140.51 136.779L1151.7 133.753C1152.36 133.582 1153.06 133.544 1153.73 133.641C1154.41 133.738 1155.06 133.968 1155.65 134.318C1156.24 134.669 1156.76 135.132 1157.17 135.681C1157.57 136.231 1157.87 136.856 1158.04 137.521C1158.2 138.162 1158.23 138.829 1158.14 139.483C1158.04 140.137 1157.82 140.766 1157.48 141.333C1157.14 141.901 1156.69 142.396 1156.16 142.79C1155.63 143.184 1155.03 143.469 1154.38 143.629Z" fill="white"/>
<rect x="1108.02" y="117.346" width="51.0207" height="52.9103" fill="white"/>
<rect width="36.1087" height="29.9334" rx="14.9667" transform="matrix(0.763854 0.645389 -0.680565 0.732687 1136.82 116)" fill="#2B7FFF"/>
<rect width="36.8465" height="11.5098" rx="5.75492" transform="matrix(0.999506 -0.0314287 0.0345478 0.999403 1107 134.279)" fill="#2B7FFF"/>
<rect width="16.3625" height="11.6911" rx="5.84556" transform="matrix(0.836431 0.548072 -0.584495 0.811397 1119.5 123.209)" fill="#2B7FFF"/>
<path d="M1140.06 122.784C1139 121.557 1137.64 120.627 1136.11 120.085C1134.58 119.543 1132.93 119.408 1131.34 119.692C1129.74 119.976 1128.24 120.67 1126.99 121.706C1125.74 122.742 1124.79 124.085 1124.21 125.603C1122.98 125.051 1121.63 124.819 1120.28 124.929C1118.93 125.039 1117.63 125.487 1116.51 126.232C1115.38 126.976 1114.46 127.994 1113.83 129.189C1113.2 130.385 1112.88 131.72 1112.9 133.072M1140.06 122.784C1142.26 122.089 1144.61 122.039 1146.84 122.642C1149.07 123.245 1151.07 124.474 1152.62 126.184C1154.17 127.894 1155.2 130.013 1155.57 132.288C1155.95 134.564 1155.67 136.9 1154.76 139.02M1140.06 122.784C1137.84 123.489 1135.87 124.823 1134.39 126.625C1132.91 128.426 1131.98 130.618 1131.72 132.935M1112.9 133.072C1111.99 132.886 1111.04 132.891 1110.13 133.093C1109.21 133.294 1108.35 133.685 1107.6 134.239C1106.85 134.794 1106.22 135.5 1105.76 136.312C1105.29 137.125 1105.01 138.025 1104.91 138.955C1104.82 139.885 1104.92 140.825 1105.21 141.714C1105.5 142.602 1105.98 143.42 1106.6 144.113C1107.23 144.807 1108 145.362 1108.85 145.742C1109.7 146.122 1110.63 146.319 1111.56 146.32H1123.74M1112.9 133.072C1112.94 135.077 1113.71 136.897 1114.95 138.289M1154.76 139.02C1153.84 138.551 1152.83 138.3 1151.8 138.288C1150.77 138.276 1149.74 138.502 1148.81 138.95C1147.89 139.397 1147.07 140.054 1146.44 140.868C1145.8 141.682 1145.37 142.632 1145.16 143.643M1154.76 139.02C1156.1 139.703 1157.17 140.817 1157.8 142.183C1158.43 143.548 1158.58 145.085 1158.23 146.547C1157.88 148.008 1157.04 149.309 1155.86 150.239C1154.68 151.169 1153.22 151.675 1151.72 151.674C1150.97 151.675 1150.23 151.857 1149.57 152.204C1148.91 152.552 1148.34 153.055 1147.91 153.671C1147.48 154.286 1147.21 154.996 1147.12 155.739C1147.03 156.482 1147.11 157.237 1147.38 157.938L1149.04 162.382M1123.74 146.32C1124.05 147.832 1124.87 149.191 1126.07 150.166C1127.26 151.142 1128.76 151.675 1130.3 151.674C1130.99 151.674 1131.33 151.674 1131.64 151.712C1132.42 151.804 1133.16 152.064 1133.82 152.474C1134.49 152.884 1135.05 153.434 1135.48 154.086C1135.66 154.351 1135.81 154.656 1136.11 155.264L1139.67 162.382M1123.74 146.32C1123.49 145.078 1123.6 143.79 1124.05 142.605C1124.5 141.421 1125.27 140.388 1126.29 139.628" stroke="#2B7FFF" stroke-width="6.25" stroke-linecap="round" stroke-linejoin="round"/>
<rect x="1137.31" y="150.414" width="12.2828" height="15.1172" rx="2" fill="#2B7FFF"/>
<path fill-rule="evenodd" clip-rule="evenodd" d="M1150.66 141.414L1147.46 144.58L1150.13 146.199L1139.4 149.162L1144.42 144.188L1142.29 142.893L1146.4 138.823L1150.66 141.414Z" fill="white"/>
<path fill-rule="evenodd" clip-rule="evenodd" d="M1137.37 121.395L1137.9 129.515L1143.27 127.799L1134.59 145.968L1133.75 133.208L1129.45 134.58L1128.77 124.14L1137.37 121.395Z" fill="white"/>
<rect x="1194" y="216" width="137" height="127" fill="#2B7FFF"/>
<path fill-rule="evenodd" clip-rule="evenodd" d="M1239.2 226H1258.7C1258.72 229.092 1257.83 233.35 1260.11 235.917C1265.1 241.552 1273.4 234.515 1280.27 234.515C1292.63 234.515 1300.27 243.642 1305.76 252.955C1312.02 263.579 1311.76 276.866 1305.09 287.264C1300.52 294.385 1294.88 300.243 1286.5 303.344C1274.07 307.939 1260.2 306.208 1248.62 300.769C1244.2 298.695 1238.49 301.634 1238.49 306.45V323.997H1219V307.179C1219 303.927 1219.67 300.705 1220.96 297.696C1227.08 283.432 1237.05 284.591 1250.96 280.805C1260.03 278.338 1265.43 267.839 1256.8 261.205C1251.84 257.386 1246.66 253.875 1243.34 248.55C1238.93 241.492 1239.2 233.886 1239.2 226Z" fill="white"/>
<circle cx="1281" cy="259" r="13" fill="#F17148"/>
<rect x="920" y="468" width="137" height="56" fill="#2B7FFF"/>
<path fill-rule="evenodd" clip-rule="evenodd" d="M961.196 478H980.699C980.716 481.092 979.834 485.35 982.109 487.917C987.098 493.552 995.398 486.515 1002.27 486.515C1014.63 486.515 1022.27 495.642 1027.76 504.955C1034.02 515.579 1033.76 528.866 1027.09 539.264C1022.52 546.385 1016.88 552.243 1008.5 555.344C996.071 559.939 982.2 558.208 970.618 552.769C966.197 550.695 960.485 553.634 960.485 558.45V575.997H941V559.179C941.002 555.927 941.668 552.705 942.961 549.696C949.077 535.432 959.047 536.591 972.961 532.805C982.032 530.338 987.429 519.839 978.803 513.205C973.837 509.386 968.66 505.875 965.337 500.55C960.931 493.492 961.196 485.886 961.196 478Z" fill="white"/>
<circle cx="1007" cy="511" r="13" fill="#F17148"/>
<rect x="1057" y="343" width="137" height="127" fill="#F17148"/>
<circle cx="1127" cy="384" r="21" fill="#FAE164"/>
<path d="M1114 432.5C1114 418.417 1125.42 407 1139.5 407H1141.5C1155.58 407 1167 418.417 1167 432.5V470H1114V432.5Z" fill="#2B7FFF"/>
<path d="M1087 470.1H1111L1123.5 445.1C1124.7 443.1 1124.67 439.933 1124.5 438.6C1123.7 435.4 1118.5 432.933 1116 432.1L1120 421.6C1120.8 419.2 1119 417.6 1118 417.1C1115.6 416.7 1114.33 417.6 1114 418.1L1087 470.1Z" fill="#FAE164"/>
<path d="M1097.71 389.616C1099.34 389.85 1099.98 388.88 1100.09 388.365C1100.37 387.131 1099.04 386.295 1098.34 386.032L1081.66 380.206C1079.15 379.258 1078.06 381.079 1077.83 382.107C1077.28 384.577 1079.53 385.619 1080.73 385.831L1097.71 389.616Z" fill="white" stroke="white"/>
<path d="M1099.89 401.14C1101.45 400.579 1102.27 401.399 1102.48 401.879C1103 403.032 1101.88 404.12 1101.25 404.52L1086.1 413.616C1083.83 415.055 1082.4 413.493 1081.97 412.533C1080.92 410.227 1082.92 408.749 1084.04 408.298L1099.89 401.14Z" fill="white" stroke="white"/>
<path d="M1099.27 396.647C1100.88 396.271 1101.12 395.135 1101.04 394.614C1100.84 393.364 1099.3 393.069 1098.56 393.078L1080.9 393.732C1078.22 393.763 1077.87 395.854 1078.03 396.896C1078.42 399.396 1080.89 399.546 1082.08 399.308L1099.27 396.647Z" fill="white" stroke="white"/>
<rect y="254" width="137" height="127" fill="#2B7FFF"/>
<circle cx="70" cy="315" r="20" fill="#FAE164"/>
<rect width="52.368" height="18.3628" rx="9.11314" transform="matrix(0.661141 0.750261 0.730552 -0.682857 16 328.539)" fill="white"/>
<rect width="43.9337" height="17.4749" rx="8.73743" transform="matrix(0.425147 -0.905124 -0.891099 -0.453808 32.312 341.391)" fill="white"/>
<mask id="mask1_1766_6884" style="mask-type:alpha" maskUnits="userSpaceOnUse" x="19" y="296" width="30" height="43">
<rect width="43.9337" height="17.4749" rx="8.73743" transform="matrix(0.425147 -0.905124 -0.891099 -0.453808 32.312 341.391)" fill="white"/>
</mask>
<g mask="url(#mask1_1766_6884)">
<rect width="19.8554" height="22.5552" transform="matrix(0.897533 0.440948 0.440948 -0.897533 26.8784 309)" fill="#FAE164"/>
</g>
<rect width="52.368" height="18.3628" rx="9.11314" transform="matrix(-0.661141 0.750261 -0.730552 -0.682857 124.793 329.998)" fill="white"/>
<rect width="43.9337" height="17.4749" rx="8.73743" transform="matrix(-0.425147 -0.905124 0.891099 -0.453808 108.481 342.85)" fill="white"/>
<mask id="mask2_1766_6884" style="mask-type:alpha" maskUnits="userSpaceOnUse" x="92" y="298" width="30" height="42">
<rect width="43.9337" height="17.4749" rx="8.73743" transform="matrix(-0.425147 -0.905124 0.891099 -0.453808 108.481 342.85)" fill="white"/>
</mask>
<g mask="url(#mask2_1766_6884)">
<rect x="113.915" y="310.459" width="19.8554" height="22.5552" transform="rotate(153.836 113.915 310.459)" fill="#FAE164"/>
</g>
<path d="M43 363.5C43 349.417 54.4167 338 68.5 338H70.5C84.5833 338 96 349.417 96 363.5V381H43V363.5Z" fill="white"/>
<path d="M36.9345 271.185L48.8513 271.62L40.7075 280.924L51.566 280.459" stroke="white" stroke-width="4" stroke-linecap="square"/>
<path d="M36.9345 271.185L48.8513 271.62L40.7075 280.924L51.566 280.459" stroke="white" stroke-width="4" stroke-linecap="square"/>
<path d="M58.4475 265.843L74.783 269.157L61.591 279.889L76.6579 281.742" stroke="white" stroke-width="4" stroke-linecap="square"/>
<path d="M58.4475 265.843L74.783 269.157L61.591 279.889L76.6579 281.742" stroke="white" stroke-width="4" stroke-linecap="square"/>
<path d="M84.2896 271.391L97.5274 271.521L88.8515 281.872L100.88 281.054" stroke="white" stroke-width="4" stroke-linecap="square"/>
<path d="M84.2896 271.391L97.5274 271.521L88.8515 281.872L100.88 281.054" stroke="white" stroke-width="4" stroke-linecap="square"/>
</g>
</svg>
