<svg width="50" height="50" viewBox="0 0 50 50" fill="none" xmlns="http://www.w3.org/2000/svg">
<rect width="50" height="50" rx="25" fill="#2B7FFF" fill-opacity="0.2"/>
<path d="M17.2222 15.125C17.2222 13.4014 18.6174 12 20.3333 12H29.6667C31.3826 12 32.7778 13.4014 32.7778 15.125V18.25H35.8889C37.6049 18.25 39 19.6514 39 21.375V33.875C39 35.5986 37.6049 37 35.8889 37H14.1111C12.3951 37 11 35.5986 11 33.875V21.375C11 19.6514 12.3951 18.25 14.1111 18.25H17.2222V15.125ZM24.2222 29.1875C23.3618 29.1875 22.6667 29.8857 22.6667 30.75V34.6562H27.3333V30.75C27.3333 29.8857 26.6382 29.1875 25.7778 29.1875H24.2222ZM17.2222 29.9688V28.4062C17.2222 27.9766 16.8722 27.625 16.4444 27.625H14.8889C14.4611 27.625 14.1111 27.9766 14.1111 28.4062V29.9688C14.1111 30.3984 14.4611 30.75 14.8889 30.75H16.4444C16.8722 30.75 17.2222 30.3984 17.2222 29.9688ZM16.4444 24.5C16.8722 24.5 17.2222 24.1484 17.2222 23.7188V22.1562C17.2222 21.7266 16.8722 21.375 16.4444 21.375H14.8889C14.4611 21.375 14.1111 21.7266 14.1111 22.1562V23.7188C14.1111 24.1484 14.4611 24.5 14.8889 24.5H16.4444ZM35.8889 29.9688V28.4062C35.8889 27.9766 35.5389 27.625 35.1111 27.625H33.5556C33.1278 27.625 32.7778 27.9766 32.7778 28.4062V29.9688C32.7778 30.3984 33.1278 30.75 33.5556 30.75H35.1111C35.5389 30.75 35.8889 30.3984 35.8889 29.9688ZM35.1111 24.5C35.5389 24.5 35.8889 24.1484 35.8889 23.7188V22.1562C35.8889 21.7266 35.5389 21.375 35.1111 21.375H33.5556C33.1278 21.375 32.7778 21.7266 32.7778 22.1562V23.7188C32.7778 24.1484 33.1278 24.5 33.5556 24.5H35.1111ZM23.8333 17.0781V18.6406H22.2778C21.85 18.6406 21.5 18.9922 21.5 19.4219V20.2031C21.5 20.6328 21.85 20.9844 22.2778 20.9844H23.8333V22.5469C23.8333 22.9766 24.1833 23.3281 24.6111 23.3281H25.3889C25.8167 23.3281 26.1667 22.9766 26.1667 22.5469V20.9844H27.7222C28.15 20.9844 28.5 20.6328 28.5 20.2031V19.4219C28.5 18.9922 28.15 18.6406 27.7222 18.6406H26.1667V17.0781C26.1667 16.6484 25.8167 16.2969 25.3889 16.2969H24.6111C24.1833 16.2969 23.8333 16.6484 23.8333 17.0781Z" fill="#2B7FFF"/>
</svg>
