<svg width="24" height="24" viewBox="0 0 24 24" fill="none" xmlns="http://www.w3.org/2000/svg">
<path d="M12 21C17.5228 21 22 16.5228 22 11C22 5.47715 17.5228 1 12 1C6.47715 1 2 5.47715 2 11C2 16.5228 6.47715 21 12 21Z" fill="#EBF3FF"/>
<path d="M18.5 11C18.5 7.15 15.2 4.1 11.25 4.55C8.24999 4.9 5.84999 7.3 5.54999 10.3C5.29999 12.6 6.24999 14.65 7.84999 15.95C8.54999 16.55 8.99999 17.4 8.99999 18.35V18.5H15V18.45C15 17.55 15.4 16.65 16.1 16.05C17.55 14.85 18.5 13.05 18.5 11Z" fill="#2B7FFF"/>
<path d="M15.3 10.0999L13.8 9.0999C13.65 8.9999 13.4 8.9999 13.25 9.0999L12 9.8999L10.8 9.0999C10.65 8.9999 10.4 8.9999 10.25 9.0999L8.74999 10.0999C8.64999 10.1999 8.54999 10.2999 8.54999 10.4499C8.54999 10.5999 8.54999 10.7499 8.64999 10.8499L10.55 13.1999V18.4999H11.55V12.9999C11.55 12.8999 11.5 12.7999 11.45 12.6999L9.79999 10.6499L10.55 10.1499L11.75 10.9499C11.9 11.0499 12.15 11.0499 12.3 10.9499L13.5 10.1499L14.25 10.6499L12.6 12.6999C12.55 12.7999 12.5 12.8999 12.5 12.9999V18.4999H13.5V13.1999L15.4 10.8499C15.5 10.7499 15.55 10.5999 15.5 10.4499C15.45 10.2999 15.4 10.1499 15.3 10.0999Z" fill="#EBF3FF"/>
<path d="M12 23.5C12.8284 23.5 13.5 22.8284 13.5 22C13.5 21.1716 12.8284 20.5 12 20.5C11.1716 20.5 10.5 21.1716 10.5 22C10.5 22.8284 11.1716 23.5 12 23.5Z" fill="#171719"/>
<path d="M13 22.5H11C9.9 22.5 9 21.6 9 20.5V18H15V20.5C15 21.6 14.1 22.5 13 22.5Z" fill="#AEB0B6"/>
<path d="M15 20.5L9.2 21.3C9.35 21.65 9.65 22 10 22.2L14.7 21.55C14.9 21.25 15 20.9 15 20.5ZM9 19.35V20.35L15 19.5V18.5L9 19.35Z" fill="#171719"/>
</svg>
