<svg width="20" height="20" viewBox="0 0 20 20" fill="none" xmlns="http://www.w3.org/2000/svg">
<path fill-rule="evenodd" clip-rule="evenodd" d="M10 20C12.6522 20 15.1957 18.9464 17.0711 17.0711C18.9464 15.1957 20 12.6522 20 10C20 7.34784 18.9464 4.8043 17.0711 2.92893C15.1957 1.05357 12.6522 0 10 0C7.34784 0 4.8043 1.05357 2.92893 2.92893C1.05357 4.8043 0 7.34784 0 10C0 12.6522 1.05357 15.1957 2.92893 17.0711C4.8043 18.9464 7.34784 20 10 20ZM11.25 6.25C11.25 6.58152 11.1183 6.89946 10.8839 7.13388C10.6495 7.3683 10.3315 7.5 10 7.5C9.66848 7.5 9.35054 7.3683 9.11612 7.13388C8.8817 6.89946 8.75 6.58152 8.75 6.25C8.75 5.91848 8.8817 5.60054 9.11612 5.36612C9.35054 5.1317 9.66848 5 10 5C10.3315 5 10.6495 5.1317 10.8839 5.36612C11.1183 5.60054 11.25 5.91848 11.25 6.25ZM8.75 8.75C8.50136 8.75 8.2629 8.84877 8.08709 9.02459C7.91127 9.2004 7.8125 9.43886 7.8125 9.6875C7.8125 9.93614 7.91127 10.1746 8.08709 10.3504C8.2629 10.5262 8.50136 10.625 8.75 10.625H9.0625V13.125H7.8125C7.56386 13.125 7.3254 13.2238 7.14959 13.3996C6.97377 13.5754 6.875 13.8139 6.875 14.0625C6.875 14.3111 6.97377 14.5496 7.14959 14.7254C7.3254 14.9012 7.56386 15 7.8125 15H12.1875C12.4361 15 12.6746 14.9012 12.8504 14.7254C13.0262 14.5496 13.125 14.3111 13.125 14.0625C13.125 13.8139 13.0262 13.5754 12.8504 13.3996C12.6746 13.2238 12.4361 13.125 12.1875 13.125H10.9375V8.75H8.75Z" fill="#FF3939"/>
</svg>
