<svg width="24" height="24" viewBox="0 0 24 24" fill="none" xmlns="http://www.w3.org/2000/svg">
<path d="M17.8438 1H6.15625C3.30853 1 1 3.30853 1 6.15625V17.8438C1 20.6915 3.30853 23 6.15625 23H17.8438C20.6915 23 23 20.6915 23 17.8438V6.15625C23 3.30853 20.6915 1 17.8438 1Z" fill="url(#paint0_radial_852_2209)"/>
<path d="M17.8438 1H6.15625C3.30853 1 1 3.30853 1 6.15625V17.8438C1 20.6915 3.30853 23 6.15625 23H17.8438C20.6915 23 23 20.6915 23 17.8438V6.15625C23 3.30853 20.6915 1 17.8438 1Z" fill="url(#paint1_radial_852_2209)"/>
<path d="M12.0008 3.40625C9.66688 3.40625 9.37392 3.41648 8.45731 3.45816C7.54242 3.50009 6.91791 3.6449 6.37152 3.85742C5.80623 4.07691 5.32678 4.37055 4.84914 4.84837C4.37107 5.32609 4.07742 5.80554 3.85725 6.37058C3.64413 6.91714 3.49915 7.54191 3.45798 8.45637C3.41699 9.37306 3.40625 9.66611 3.40625 12.0001C3.40625 14.3341 3.41656 14.6261 3.45816 15.5427C3.50027 16.4576 3.64507 17.0821 3.85742 17.6285C4.07708 18.1938 4.37073 18.6732 4.84854 19.1509C5.32609 19.6289 5.80554 19.9233 6.37041 20.1427C6.91723 20.3553 7.54182 20.5001 8.45654 20.542C9.37323 20.5837 9.66594 20.5939 11.9997 20.5939C14.3339 20.5939 14.6259 20.5837 15.5425 20.542C16.4574 20.5001 17.0826 20.3553 17.6294 20.1427C18.1945 19.9233 18.6732 19.6289 19.1507 19.1509C19.6288 18.6732 19.9223 18.1938 20.1426 17.6287C20.3538 17.0821 20.4989 16.4574 20.5418 15.5429C20.583 14.6262 20.5938 14.3341 20.5938 12.0001C20.5938 9.66611 20.583 9.37323 20.5418 8.45654C20.4989 7.54165 20.3538 6.91723 20.1426 6.37084C19.9223 5.80554 19.6288 5.32609 19.1507 4.84837C18.6727 4.37038 18.1946 4.07673 17.6289 3.85751C17.0811 3.6449 16.4562 3.50001 15.5413 3.45816C14.6246 3.41648 14.3328 3.40625 11.9981 3.40625H12.0008ZM11.2298 4.95493C11.4587 4.95459 11.714 4.95493 12.0008 4.95493C14.2954 4.95493 14.5673 4.96318 15.4734 5.00434C16.3113 5.04267 16.7661 5.18266 17.069 5.30031C17.4701 5.45603 17.756 5.64226 18.0566 5.94313C18.3574 6.24391 18.5435 6.53034 18.6997 6.93141C18.8173 7.23391 18.9575 7.68869 18.9957 8.52658C19.0368 9.43253 19.0458 9.70461 19.0458 11.9981C19.0458 14.2916 19.0368 14.5638 18.9957 15.4696C18.9573 16.3075 18.8173 16.7623 18.6997 17.0649C18.544 17.466 18.3574 17.7515 18.0566 18.0521C17.7558 18.3529 17.4703 18.5391 17.069 18.6949C16.7664 18.813 16.3113 18.9527 15.4734 18.991C14.5675 19.0322 14.2954 19.0411 12.0008 19.0411C9.70607 19.0411 9.43408 19.0322 8.52821 18.991C7.69032 18.9523 7.23554 18.8124 6.93235 18.6947C6.53137 18.5389 6.24485 18.3528 5.94407 18.052C5.64329 17.7512 5.45715 17.4655 5.301 17.0642C5.18335 16.7616 5.04319 16.3068 5.00503 15.469C4.96387 14.563 4.95562 14.2909 4.95562 11.996C4.95562 9.701 4.96387 9.43038 5.00503 8.52443C5.04336 7.68654 5.18335 7.23176 5.301 6.92883C5.4568 6.52776 5.64329 6.24133 5.94416 5.94055C6.24502 5.63977 6.53137 5.45354 6.93244 5.29748C7.23537 5.17931 7.69032 5.03966 8.52821 5.00116C9.32098 4.96533 9.62821 4.95459 11.2298 4.95278V4.95493ZM16.5881 6.38184C16.0188 6.38184 15.5569 6.84332 15.5569 7.41274C15.5569 7.98208 16.0188 8.44399 16.5881 8.44399C17.1575 8.44399 17.6194 7.98208 17.6194 7.41274C17.6194 6.84341 17.1575 6.38149 16.5881 6.38149V6.38184ZM12.0008 7.58677C9.56359 7.58677 7.58754 9.56281 7.58754 12.0001C7.58754 14.4374 9.56359 16.4125 12.0008 16.4125C14.438 16.4125 16.4134 14.4374 16.4134 12.0001C16.4134 9.5629 14.4379 7.58677 12.0006 7.58677H12.0008ZM12.0008 9.13545C13.5828 9.13545 14.8654 10.4179 14.8654 12.0001C14.8654 13.5821 13.5828 14.8647 12.0008 14.8647C10.4188 14.8647 9.13622 13.5821 9.13622 12.0001C9.13622 10.4179 10.4187 9.13545 12.0008 9.13545Z" fill="white"/>
<defs>
<radialGradient id="paint0_radial_852_2209" cx="0" cy="0" r="1" gradientUnits="userSpaceOnUse" gradientTransform="translate(6.84375 24.6944) rotate(-90) scale(21.8036 20.2791)">
<stop stop-color="#FFDD55"/>
<stop offset="0.1" stop-color="#FFDD55"/>
<stop offset="0.5" stop-color="#FF543E"/>
<stop offset="1" stop-color="#C837AB"/>
</radialGradient>
<radialGradient id="paint1_radial_852_2209" cx="0" cy="0" r="1" gradientUnits="userSpaceOnUse" gradientTransform="translate(-2.68509 2.58477) rotate(78.681) scale(9.74634 40.1747)">
<stop stop-color="#3771C8"/>
<stop offset="0.128" stop-color="#3771C8"/>
<stop offset="1" stop-color="#6600FF" stop-opacity="0"/>
</radialGradient>
</defs>
</svg>
