<svg width="24" height="24" viewBox="0 0 24 24" fill="none" xmlns="http://www.w3.org/2000/svg">
<path d="M13.4129 4.5C13.4129 3.30653 13.8593 2.16193 14.6539 1.31802C15.4485 0.474106 16.5262 0 17.6499 0C18.7736 0 19.8513 0.474106 20.6459 1.31802C21.4405 2.16193 21.8869 3.30653 21.8869 4.5V7.5L23.7511 9.1785C23.8612 9.27785 23.9399 9.41065 23.9767 9.55901C24.0135 9.70736 24.0066 9.86413 23.9568 10.0082C23.9071 10.1522 23.817 10.2766 23.6987 10.3645C23.5803 10.4525 23.4394 10.4998 23.2949 10.5H12.0062C11.8618 10.4998 11.7209 10.4525 11.6025 10.3645C11.4841 10.2766 11.394 10.1522 11.3443 10.0082C11.2946 9.86413 11.2877 9.70736 11.3244 9.55901C11.3612 9.41065 11.44 9.27785 11.55 9.1785L13.4143 7.5L13.4129 4.5ZM17.6499 13.5C17.2118 13.4999 16.7846 13.3557 16.4269 13.087C16.0693 12.8184 15.7989 12.4386 15.6528 12H19.6483C19.5022 12.4389 19.2316 12.8188 18.8736 13.0875C18.5157 13.3561 18.0882 13.5002 17.6499 13.5ZM12.0048 6.8055L10.6405 8.034C9.13494 9.3885 10.036 12 12.009 12H14.1558L14.3238 12.4995C14.3681 12.6355 14.4199 12.7665 14.4792 12.8925L11.2986 14.88L0.0211851 7.8345C0.117447 6.91746 0.528668 6.07031 1.17618 5.45511C1.82369 4.83991 2.66203 4.49986 3.53082 4.5H12.0048V6.8055ZM11.6588 16.3965L15.3492 14.0895C15.7842 14.488 16.3042 14.7678 16.864 14.9045C17.4239 15.0413 18.0067 15.0308 18.5619 14.8742C19.1171 14.7175 19.628 14.4194 20.0501 14.0055C20.4723 13.5917 20.7929 13.0748 20.9844 12.4995L21.1482 12H22.5973V20.25C22.5973 21.2446 22.2253 22.1984 21.5631 22.9017C20.9009 23.6049 20.0029 24 19.0664 24H3.53082C2.59439 24 1.69631 23.6049 1.03415 22.9017C0.371996 22.1984 0 21.2446 0 20.25V9.5595L10.9413 16.3965C11.0498 16.4643 11.1734 16.5 11.2993 16.5C11.4252 16.5 11.5488 16.4643 11.6574 16.3965" fill="#2B7FFF"/>
</svg>
