<svg width="96" height="120" viewBox="0 0 96 120" fill="none" xmlns="http://www.w3.org/2000/svg">
<g filter="url(#filter0_f_2365_9073)">
<ellipse cx="47.5739" cy="111.934" rx="15.8574" ry="5.59672" fill="black" fill-opacity="0.2"/>
<path d="M47.574 106.837C51.9116 106.837 55.8175 107.458 58.6208 108.448C60.0246 108.943 61.1251 109.522 61.865 110.139C62.6077 110.759 62.9314 111.368 62.9314 111.934C62.9314 112.5 62.6077 113.109 61.865 113.729C61.1251 114.346 60.0246 114.925 58.6208 115.42C55.8175 116.41 51.9116 117.031 47.574 117.031C43.2363 117.031 39.3304 116.41 36.5271 115.42C35.1233 114.925 34.0228 114.346 33.283 113.729C32.5402 113.109 32.2166 112.5 32.2166 111.934C32.2166 111.368 32.5402 110.759 33.283 110.139C34.0228 109.522 35.1234 108.943 36.5271 108.448C39.3304 107.458 43.2363 106.837 47.574 106.837Z" stroke="#171719" stroke-opacity="0.25"/>
</g>
<path fill-rule="evenodd" clip-rule="evenodd" d="M47.5722 0C73.8456 0 95.1443 21.2988 95.1443 47.5722C95.1443 67.7171 82.6229 84.9375 64.9383 91.875L50.2812 111.909C49.9757 112.329 49.5699 112.671 49.0983 112.907C48.6267 113.144 48.1031 113.267 47.5717 113.267C47.0402 113.267 46.5166 113.144 46.045 112.907C45.5734 112.671 45.1676 112.329 44.8621 111.909L30.2046 91.8744C12.5208 84.9365 0 67.7165 0 47.5722C0 21.2988 21.2988 0 47.5722 0Z" fill="#2B7FFF"/>
<path d="M47.5723 0.5C73.5695 0.500051 94.6445 21.5751 94.6445 47.5723C94.6445 67.5046 82.2553 84.5442 64.7559 91.4092L64.6201 91.4629L64.5352 91.5801L49.8779 111.614L49.877 111.615C49.6192 111.969 49.2754 112.259 48.874 112.46C48.4725 112.661 48.0255 112.767 47.5713 112.767C47.1171 112.767 46.67 112.661 46.2686 112.46C45.8674 112.259 45.5242 111.969 45.2666 111.615L45.2656 111.614L30.6084 91.5791L30.5225 91.4619L30.3867 91.4092L29.5703 91.0801C12.504 84.0108 0.500046 67.1926 0.5 47.5723C0.5 21.575 21.575 0.5 47.5723 0.5Z" stroke="#171719" stroke-opacity="0.25"/>
<defs>
<filter id="filter0_f_2365_9073" x="29.7166" y="104.337" width="35.7147" height="15.1934" filterUnits="userSpaceOnUse" color-interpolation-filters="sRGB">
<feFlood flood-opacity="0" result="BackgroundImageFix"/>
<feBlend mode="normal" in="SourceGraphic" in2="BackgroundImageFix" result="shape"/>
<feGaussianBlur stdDeviation="1" result="effect1_foregroundBlur_2365_9073"/>
</filter>
</defs>
</svg>
