<svg width="12" height="12" viewBox="0 0 12 12" fill="none" xmlns="http://www.w3.org/2000/svg">
<path d="M5.75 11.2491C8.92598 11.2491 11.5 8.72976 11.5 5.62454C11.5 2.51933 8.92598 0 5.75 0C2.57402 0 0 2.51933 0 5.62454C0 6.8971 0.43125 8.06888 1.15898 9.01099L0.0628907 11.1741C-0.0449218 11.385 -0.0112304 11.6428 0.14375 11.8186C0.29873 11.9943 0.543555 12.0482 0.752441 11.9545L3.41182 10.7663C4.12607 11.0757 4.9167 11.2491 5.75 11.2491ZM4.8875 3.59971C4.8875 3.35129 5.08066 3.14974 5.31875 3.14974H6.18125C6.41934 3.14974 6.6125 3.35129 6.6125 3.59971V4.72462H7.69062C7.92871 4.72462 8.12187 4.92616 8.12187 5.17458V6.07451C8.12187 6.32293 7.92871 6.52447 7.69062 6.52447H6.6125V7.64938C6.6125 7.8978 6.41934 8.09934 6.18125 8.09934H5.31875C5.08066 8.09934 4.8875 7.8978 4.8875 7.64938V6.52447H3.80938C3.57129 6.52447 3.37812 6.32293 3.37812 6.07451V5.17458C3.37812 4.92616 3.57129 4.72462 3.80938 4.72462H4.8875V3.59971Z" fill="#2B7FFF"/>
</svg>
