<svg width="12" height="12" viewBox="0 0 12 12" fill="none" xmlns="http://www.w3.org/2000/svg">
<path d="M2.71875 9.09073C1.06369 7.31122 1.09296 4.52195 2.8124 2.79C3.48615 2.1081 4.36244 1.66249 5.31035 1.51976L5.25986 0C3.92905 0.159994 2.69177 0.766406 1.75 1.72024C-0.554052 4.03976 -0.581855 7.78537 1.66001 10.1576L0.386155 11.4395L4.4177 11.6598L4.40673 7.39097L2.71875 9.09073ZM7.58221 0.340244L7.59319 4.60902L9.28117 2.91C10.9362 4.69098 10.907 7.48024 9.18751 9.21073C8.51376 9.89264 7.63747 10.3382 6.68956 10.481L6.74005 12C8.0707 11.8392 9.30789 11.2333 10.2506 10.2805C12.554 7.95951 12.5818 4.2139 10.3399 1.84317L11.6138 0.559756L7.58221 0.340244Z" fill="#2B7FFF"/>
</svg>
