<svg width="23" height="20" viewBox="0 0 23 20" fill="none" xmlns="http://www.w3.org/2000/svg">
<path d="M10 20C15.523 20 20 15.523 20 10C20 9.537 19.306 9.46 19.067 9.857C18.5572 10.7013 17.862 11.4186 17.034 11.9545C16.206 12.4903 15.2669 12.8307 14.2878 12.9499C13.3088 13.0691 12.3154 12.9639 11.383 12.6423C10.4507 12.3207 9.60369 11.7911 8.90628 11.0937C8.20887 10.3963 7.67932 9.54933 7.35772 8.61695C7.03613 7.68457 6.93093 6.69123 7.0501 5.71217C7.16926 4.73311 7.50967 3.794 8.04553 2.96599C8.58139 2.13797 9.29866 1.44275 10.143 0.933C10.54 0.693 10.463 0 10 0C4.477 0 0 4.477 0 10C0 15.523 4.477 20 10 20Z" fill="#2B7FFF"/>
<path fill-rule="evenodd" clip-rule="evenodd" d="M18.25 1.5C18.0511 1.5 17.8603 1.42098 17.7197 1.28033C17.579 1.13968 17.5 0.948912 17.5 0.75C17.5 0.551088 17.579 0.360322 17.7197 0.21967C17.8603 0.0790177 18.0511 0 18.25 0H22.25C22.3982 0.000130387 22.5431 0.0441877 22.6663 0.126608C22.7895 0.209028 22.8856 0.326113 22.9423 0.463076C22.999 0.60004 23.0138 0.750737 22.985 0.896136C22.9561 1.04154 22.8848 1.17511 22.78 1.28L20.06 4H22.25C22.4489 4 22.6397 4.07902 22.7803 4.21967C22.921 4.36032 23 4.55109 23 4.75C23 4.94891 22.921 5.13968 22.7803 5.28033C22.6397 5.42098 22.4489 5.5 22.25 5.5H18.25C18.1018 5.49987 17.9569 5.45581 17.8337 5.37339C17.7105 5.29097 17.6144 5.17389 17.5577 5.03692C17.501 4.89996 17.4862 4.74926 17.515 4.60386C17.5439 4.45847 17.6152 4.32489 17.72 4.22L20.44 1.5H18.25ZM13.75 7.5C13.5511 7.5 13.3603 7.42098 13.2197 7.28033C13.079 7.13968 13 6.94891 13 6.75C13 6.55109 13.079 6.36032 13.2197 6.21967C13.3603 6.07902 13.5511 6 13.75 6H16.75C16.8982 6.00013 17.0431 6.04419 17.1663 6.12661C17.2895 6.20903 17.3856 6.32611 17.4423 6.46308C17.499 6.60004 17.5138 6.75074 17.485 6.89614C17.4561 7.04153 17.3848 7.17511 17.28 7.28L15.56 9H16.75C16.9489 9 17.1397 9.07902 17.2803 9.21967C17.421 9.36032 17.5 9.55109 17.5 9.75C17.5 9.94891 17.421 10.1397 17.2803 10.2803C17.1397 10.421 16.9489 10.5 16.75 10.5H13.75C13.6018 10.4999 13.4569 10.4558 13.3337 10.3734C13.2105 10.291 13.1144 10.1739 13.0577 10.0369C13.001 9.89996 12.9862 9.74926 13.015 9.60386C13.0439 9.45846 13.1152 9.32489 13.22 9.22L14.94 7.5H13.75Z" fill="#2B7FFF"/>
</svg>
