<svg width="40" height="40" viewBox="0 0 40 40" fill="none" xmlns="http://www.w3.org/2000/svg">
<path d="M16.6666 13.334H20.8333C21.4963 13.334 22.1322 13.5974 22.6011 14.0662C23.0699 14.5351 23.3333 15.1709 23.3333 15.834V17.5007C23.3333 18.1637 23.0699 18.7996 22.6011 19.2684C22.1322 19.7373 21.4963 20.0007 20.8333 20.0007M20.8333 20.0007H18.3333M20.8333 20.0007C21.4963 20.0007 22.1322 20.264 22.6011 20.7329C23.0699 21.2017 23.3333 21.8376 23.3333 22.5007V24.1673C23.3333 24.8304 23.0699 25.4662 22.6011 25.9351C22.1322 26.4039 21.4963 26.6673 20.8333 26.6673H16.6666" stroke="#2B7FFF" stroke-width="4" stroke-linecap="round" stroke-linejoin="round"/>
</svg>
