<svg width="137" height="127" viewBox="0 0 137 127" fill="none" xmlns="http://www.w3.org/2000/svg">
<rect width="137" height="127" fill="#2B7FFF"/>
<path d="M83.3078 24.7961H78.6327C76.5977 24.7961 74.6454 25.5896 73.2155 26.9967C70.0417 30.122 64.7814 29.8879 61.913 26.4943L60.8398 25.2242C59.5129 23.6609 58.7784 21.6806 58.7648 19.6301L58.7477 15.854H45.0934V21.568C45.0934 26.3174 46.3835 30.9868 48.8323 35.0968L48.9836 35.3537C50.5418 37.9602 52.5499 40.2698 54.9146 42.1751L61.6447 47.6009C67.002 51.9221 68.6089 59.2459 65.5264 65.311C64.5873 67.1387 63.281 68.7529 61.6893 70.0524C60.0976 71.3519 58.2547 72.3088 56.276 72.8631L54.7462 73.2998C52.4728 73.9428 50.1011 74.1652 47.7478 73.9563C39.2937 73.1971 31.2621 77.9321 28.1254 85.5956L26.5984 89.3231C25.4486 92.1324 24.8563 95.1384 24.8545 98.1739V112.896H38.4774V97.4061C38.4774 94.9515 39.4393 92.5911 41.1718 90.8016C42.6656 89.2764 44.603 88.262 46.7076 87.9032C48.8121 87.5444 50.9762 87.8596 52.891 88.8036L58.6535 91.6407C61.2508 92.9193 64.125 93.5872 67.0391 93.5872H76.7889C80.7904 93.5872 84.7549 92.8451 88.471 91.4066C94.8717 88.947 100.287 84.4524 103.884 78.6143L105.653 75.7258C108.804 70.5933 110.475 64.6892 110.479 58.6665C110.479 53.0723 109.032 47.5666 106.272 42.6603L103.464 37.6684C101.661 34.4741 99.1756 31.7164 96.1858 29.5911L94.4248 28.3353C91.1783 26.0264 87.2917 24.789 83.3078 24.7961Z" fill="white"/>
<path fill-rule="evenodd" clip-rule="evenodd" d="M42.1961 13H61.6986C61.7157 16.2423 60.8338 20.7062 63.1086 23.3977C68.0976 29.3059 76.3976 21.9278 83.2733 21.9278C95.6318 21.9278 103.27 31.4979 108.758 41.262C115.023 52.4018 114.758 66.333 108.087 77.2359C103.521 84.7024 97.878 90.8445 89.4953 94.0954C77.0711 98.9133 63.1999 97.098 51.6177 91.3954C47.1966 89.2205 41.4854 92.303 41.4854 97.352V115.75H22V98.117C22.0016 94.7064 22.6676 91.3289 23.9608 88.173C30.0773 73.2172 40.0469 74.4331 53.961 70.4629C63.0315 67.8771 68.4287 56.8685 59.8034 49.9129C54.8372 45.9085 49.6597 42.2267 46.3375 36.6439C41.9306 29.2431 42.1961 21.2685 42.1961 13Z" fill="white"/>
<circle cx="87" cy="43" r="13" fill="#F17148"/>
</svg>
