<svg width="24" height="24" viewBox="0 0 24 24" fill="none" xmlns="http://www.w3.org/2000/svg">
<path d="M12.8489 2.75186C12.3803 2.28323 11.6205 2.28323 11.1519 2.75186L2.75186 11.1519C2.28323 11.6205 2.28323 12.3803 2.75186 12.8489C3.22049 13.3175 3.98029 13.3175 4.44892 12.8489L4.80039 12.4974V20.4004C4.80039 21.0631 5.33765 21.6004 6.00039 21.6004H8.40039C9.06313 21.6004 9.60039 21.0631 9.60039 20.4004V18.0004C9.60039 17.3376 10.1376 16.8004 10.8004 16.8004H13.2004C13.8631 16.8004 14.4004 17.3376 14.4004 18.0004V20.4004C14.4004 21.0631 14.9376 21.6004 15.6004 21.6004H18.0004C18.6631 21.6004 19.2004 21.0631 19.2004 20.4004V12.4974L19.5519 12.8489C20.0205 13.3175 20.7803 13.3175 21.2489 12.8489C21.7175 12.3803 21.7175 11.6205 21.2489 11.1519L12.8489 2.75186Z" fill="#AEB0B6"/>
</svg>
