<svg width="137" height="127" viewBox="0 0 137 127" fill="none" xmlns="http://www.w3.org/2000/svg">
<rect width="137" height="127" fill="#F17148"/>
<circle cx="98" cy="31" r="20" fill="#FAE164"/>
<path d="M54.3955 73.8182C54.3955 60.8948 64.872 50.4182 77.7955 50.4182C90.719 50.4182 101.196 60.8948 101.196 73.8182V127H54.3955V73.8182Z" fill="#2B7FFF"/>
<path d="M26.3611 96.3376C27.5448 96.2186 27.8229 95.4287 27.814 95.0486C27.7927 94.1365 26.7195 93.7813 26.1856 93.7176L13.4944 92.5318C11.5724 92.303 11.1275 93.7661 11.1453 94.5262C11.188 96.3506 12.9453 96.6897 13.8186 96.6313L26.3611 96.3376Z" fill="white"/>
<path d="M30.3501 103.918C31.4181 103.203 32.1932 103.67 32.4473 103.992C33.057 104.767 32.4074 105.801 32.0064 106.221L22.25 115.941C20.8063 117.454 19.4291 116.541 18.921 115.895C17.7014 114.346 18.932 112.855 19.6997 112.303L30.3501 103.918Z" fill="white"/>
<path d="M28.5335 101.935C29.8149 101.159 29.6628 100.086 29.4266 99.6474C28.8597 98.5939 27.4225 98.7572 26.7748 98.9705L11.5722 104.423C9.24059 105.191 9.60264 107.139 10.0751 108.017C11.2091 110.124 13.4181 109.574 14.3809 109.035L28.5335 101.935Z" fill="white"/>
<rect width="59.3081" height="19.5313" rx="9.11314" transform="matrix(0.951192 -0.308598 0.280575 0.959832 26.7002 65.5298)" fill="white"/>
<rect width="46.7295" height="18.5869" rx="8.73743" transform="matrix(0.308637 0.95118 -0.940849 0.338826 44.2285 59.991)" fill="white"/>
<mask id="mask0_396_545" style="mask-type:alpha" maskUnits="userSpaceOnUse" x="29" y="62" width="28" height="47">
<rect width="46.7295" height="18.5869" rx="8.73743" transform="matrix(0.308637 0.95118 -0.940849 0.338826 44.2285 59.991)" fill="white"/>
</mask>
<g mask="url(#mask0_396_545)">
<rect x="34.1865" y="93.451" width="21.119" height="23.9905" transform="rotate(-18.9815 34.1865 93.451)" fill="#FAE164"/>
</g>
</svg>
